<svg width="24" height="20" xmlns="http://www.w3.org/2000/svg"><path fill="#8493A8" d="M12 0c6.627 0 12 4.30646 12 9.61908 0 5.31166-5.373 9.61909-12 9.61909-2.036 0-3.951-.40977-5.631-1.1264l-4.521 1.8488C1.781 19.9875 1.715 20 1.65 20c-.301 0-.558-.26933-.487-.58388l.979-4.3209C.795 13.54079 0 11.65545 0 9.61909 0 4.30646 5.373 0 12 0m0 1.92382c-5.514 0-10 3.45229-10 7.69526 0 1.50924.58 2.97807 1.678 4.2449l.626.7224-.208.91862-.362 1.59292 1.853-.75702.8-.32705.794.33956c1.472.62812 3.139.96094 4.819.96094 5.514 0 10-3.45229 10-7.69527 0-4.24297-4.486-7.69526-10-7.69526m-.176 10.38668c-.729 0-1.321.5685-1.321 1.27069 0 .70219.592 1.27068 1.321 1.27068.731 0 1.322-.5685 1.322-1.27068 0-.7022-.591-1.27069-1.322-1.27069m1.322-6.99115v4.76626c0 .7022-.591 1.27164-1.322 1.27164-.729 0-1.321-.56945-1.321-1.27164V5.31935c0-.70123.592-1.27068 1.321-1.27068.731 0 1.322.56945 1.322 1.27068" fill-rule="evenodd"/></svg>